<svg width="54" height="54" viewBox="0 0 54 54" fill="none" xmlns="http://www.w3.org/2000/svg">
<circle cx="27" cy="27" r="27" fill="#17BE79"/>
<path d="M17.2925 16.3926C17.0533 16.3926 16.8239 16.4857 16.6548 16.6515C16.4856 16.8172 16.3906 17.0421 16.3906 17.2765C16.3906 17.5109 16.4856 17.7358 16.6548 17.9015C16.8239 18.0673 17.0533 18.1604 17.2925 18.1604H17.7362C17.932 18.1608 18.1224 18.2236 18.2786 18.3393C18.4348 18.4551 18.5483 18.6176 18.602 18.8022L21.4627 28.6138C21.6245 29.1675 21.9658 29.6545 22.4351 30.0012C22.9044 30.3479 23.476 30.5354 24.0637 30.5354H32.3049C32.8457 30.5355 33.3742 30.3767 33.8221 30.0796C34.2699 29.7824 34.6167 29.3605 34.8175 28.8683L37.4762 22.352C37.5855 22.0839 37.6261 21.7936 37.5945 21.5065C37.5629 21.2194 37.46 20.9443 37.2949 20.7052C37.1298 20.4661 36.9074 20.2702 36.6472 20.1348C36.387 19.9994 36.0969 19.9285 35.8023 19.9283H20.8061L20.3354 18.316C20.174 17.7623 19.8331 17.2751 19.3641 16.9281C18.8952 16.581 18.3238 16.3931 17.7362 16.3926H17.2925ZM24.5074 37.6069C24.8627 37.6069 25.2145 37.5383 25.5428 37.405C25.871 37.2717 26.1693 37.0764 26.4205 36.8302C26.6718 36.5839 26.8711 36.2916 27.007 35.9699C27.143 35.6481 27.213 35.3033 27.213 34.9551C27.213 34.6068 27.143 34.262 27.007 33.9403C26.8711 33.6186 26.6718 33.3262 26.4205 33.08C26.1693 32.8337 25.871 32.6384 25.5428 32.5051C25.2145 32.3719 24.8627 32.3033 24.5074 32.3033C23.7898 32.3033 23.1016 32.5827 22.5943 33.08C22.0869 33.5773 21.8018 34.2518 21.8018 34.9551C21.8018 35.6584 22.0869 36.3329 22.5943 36.8302C23.1016 37.3275 23.7898 37.6069 24.5074 37.6069ZM31.7223 37.6069C32.0776 37.6069 32.4294 37.5383 32.7577 37.405C33.0859 37.2717 33.3842 37.0764 33.6354 36.8302C33.8867 36.5839 34.086 36.2916 34.2219 35.9699C34.3579 35.6481 34.4279 35.3033 34.4279 34.9551C34.4279 34.6068 34.3579 34.262 34.2219 33.9403C34.086 33.6186 33.8867 33.3262 33.6354 33.08C33.3842 32.8337 33.0859 32.6384 32.7577 32.5051C32.4294 32.3719 32.0776 32.3033 31.7223 32.3033C31.0047 32.3033 30.3166 32.5827 29.8092 33.08C29.3018 33.5773 29.0167 34.2518 29.0167 34.9551C29.0167 35.6584 29.3018 36.3329 29.8092 36.8302C30.3166 37.3275 31.0047 37.6069 31.7223 37.6069Z" fill="white"/>
</svg>
