<svg width="305" height="50" viewBox="0 0 305 50" fill="none" xmlns="http://www.w3.org/2000/svg">
<path d="M57.7031 25.3246C57.7031 34.3484 65.2023 40.3789 75.4194 40.3789C78.697 40.4232 81.9292 39.6816 84.7881 38.2292V33.0424C82.026 34.7462 78.7612 35.6565 75.4194 35.6546C68.8518 35.6546 63.6362 31.78 63.6362 25.3246C63.6362 18.7191 68.6379 14.9947 75.4194 14.9947C78.7695 14.9798 82.0425 15.9055 84.7881 17.6443V12.5012C81.9602 10.9724 78.7117 10.2009 75.4194 10.2765C64.8642 10.2765 57.7031 15.9945 57.7031 25.3246Z" fill="#272B37"/>
<path d="M114.584 19.6897C114.584 14.9624 109.935 11.3866 103.757 11.3866H89.4985V39.2656H95.3648V28.1685H102.844L110.89 39.2656H117.761L108.626 27.1443C111.93 25.8352 114.584 23.1928 114.584 19.6897ZM102.554 23.9322H95.3365V15.8109H103.467C106.51 15.8109 108.64 17.1139 108.64 19.9442C108.668 22.6351 105.625 23.9018 102.582 23.9018L102.554 23.9322Z" fill="#272B37"/>
<path d="M130.304 27.2672L121.384 11.3866H115.406L125.883 29.7603H128.91L123.653 39.2656H129.39L144.846 11.3866H139.108L130.304 27.2672Z" fill="#272B37"/>
<path d="M162.114 11.3866H148.379V39.2656H154.072V29.2655H162.258C168.295 29.2655 173.109 26.023 173.109 20.326C173.109 14.629 168.178 11.3866 162.114 11.3866ZM154.01 24.9079V15.7805H162.114C165.067 15.7805 167.217 17.4593 167.217 20.326C167.217 23.1927 165.177 24.9079 162.224 24.9079H154.01Z" fill="#272B37"/>
<path d="M203.333 12.9357C206.454 12.1951 209.387 10.9115 211.97 9.15625C197.2 11.797 182.01 11.844 167.221 9.29481C169.26 10.902 171.69 12.0482 174.31 12.6396V14.9639H185.943V39.2656H191.694V14.9639H203.333V12.9357Z" fill="#272B37"/>
<path d="M220.193 10.2714C209.717 10.2714 202.549 16.2595 202.549 25.323C202.549 34.3864 209.717 40.3808 220.193 40.3808C230.668 40.3808 237.877 34.4239 237.877 25.323C237.877 16.222 230.709 10.2714 220.193 10.2714ZM220.193 35.6554C213.407 35.6554 208.414 31.8174 208.414 25.323C208.414 18.8285 213.407 14.9907 220.193 14.9907C226.979 14.9907 232.012 18.8723 232.012 25.323C232.012 31.7736 227.02 35.6554 220.193 35.6554Z" fill="#272B37"/>
<path d="M266.363 19.6897C266.363 14.9624 261.52 11.3866 255.085 11.3866H240.232V39.2656H246.343V28.1685H254.134L262.515 39.2656H269.673L260.157 27.1443C263.599 25.8352 266.363 23.1928 266.363 19.6897ZM253.832 23.9322H246.314V15.8109H254.783C257.953 15.8109 260.171 17.1139 260.171 19.9442C260.208 22.6351 257.031 23.9018 253.862 23.9018L253.832 23.9322Z" fill="#272B37"/>
<path d="M287.313 10.2714C276.835 10.2714 269.673 16.2595 269.673 25.323C269.673 34.3864 276.835 40.3808 287.313 40.3808C297.791 40.3808 305.001 34.4239 305.001 25.323C305.001 16.222 297.839 10.2714 287.313 10.2714ZM287.313 35.6554C280.492 35.6554 275.539 31.8174 275.539 25.323C275.539 18.8285 280.526 14.9907 287.313 14.9907C294.1 14.9907 299.134 18.8723 299.134 25.323C299.134 31.7736 294.148 35.6554 287.313 35.6554Z" fill="#272B37"/>
<path d="M43.8132 10.7958L25.0734 0.53722C24.4308 0.185295 23.7018 0 22.9598 0C22.2179 0 21.4892 0.185295 20.8467 0.53722L2.10681 10.7958C1.46545 11.1494 0.933274 11.6565 0.563561 12.2665C0.193847 12.8766 -0.000636862 13.5681 1.56676e-06 14.2717V34.7954C-0.000127041 35.4981 0.194508 36.1885 0.564231 36.7974C0.933953 37.4063 1.46599 37.9124 2.10681 38.2649L20.8467 48.53C21.4892 48.8819 22.2179 49.0671 22.9598 49.0671C23.7018 49.0671 24.4308 48.8819 25.0734 48.53L43.8132 38.2649C44.4548 37.9127 44.9879 37.4069 45.3588 36.798C45.7297 36.1892 45.9255 35.4986 45.9267 34.7954V14.2717C45.926 13.5676 45.7304 12.8759 45.3595 12.266C44.9886 11.656 44.4554 11.149 43.8132 10.7958Z" fill="#17BE79"/>
<path d="M24.7298 34.6376C22.3991 30.2802 20.0639 25.9251 17.7237 21.5722H10.7176L3.53282 15.6123C4.95975 18.5348 6.38667 21.4552 7.8136 24.3733H15.8331L22.9677 37.9155C23.567 36.7831 24.1447 35.7236 24.7298 34.6376Z" fill="white"/>
<path d="M34.4213 21.7452H27.7755L23.5522 30.2527L25.1427 33.4548L29.5418 24.5878H37.1556L41.2163 15.6123L34.4213 21.7452Z" fill="white"/>
</svg>
