<svg width="54" height="54" viewBox="0 0 54 54" fill="none" xmlns="http://www.w3.org/2000/svg">
<circle cx="27" cy="27" r="27" fill="#17BE79"/>
<path d="M24.9152 16.5547C23.6079 16.5554 22.319 16.8628 21.1521 17.4521C19.9851 18.0415 18.9728 18.8964 18.1963 19.9481C17.4198 20.9998 16.9009 22.2191 16.6813 23.5078C16.4617 24.7965 16.5474 26.1188 16.9317 27.3683C17.316 28.6179 17.988 29.7598 18.8938 30.7025C19.7996 31.6451 20.914 32.362 22.1472 32.7957C23.3805 33.2294 24.6983 33.3677 25.9948 33.1995C27.2912 33.0314 28.5301 32.5614 29.6119 31.8274L34.7766 36.9879C34.9201 37.1419 35.0931 37.2653 35.2853 37.351C35.4775 37.4366 35.685 37.4827 35.8954 37.4864C36.1058 37.4901 36.3148 37.4514 36.5099 37.3726C36.705 37.2938 36.8822 37.1765 37.031 37.0277C37.1798 36.8789 37.2971 36.7016 37.3759 36.5065C37.4547 36.3114 37.4934 36.1024 37.4897 35.892C37.486 35.6816 37.44 35.4741 37.3543 35.2819C37.2687 35.0897 37.1452 34.9167 36.9912 34.7733L31.8307 29.6085C32.6845 28.352 33.1796 26.8865 33.2628 25.3697C33.346 23.8528 33.0142 22.342 32.3031 20.9996C31.5919 19.6572 30.5283 18.534 29.2266 17.7508C27.9249 16.9677 26.4343 16.5541 24.9152 16.5547ZM19.692 24.9118C19.692 23.5265 20.2423 22.198 21.2218 21.2185C22.2013 20.2389 23.5299 19.6886 24.9152 19.6886C26.3005 19.6886 27.629 20.2389 28.6085 21.2185C29.5881 22.198 30.1384 23.5265 30.1384 24.9118C30.1384 26.2971 29.5881 27.6257 28.6085 28.6052C27.629 29.5847 26.3005 30.135 24.9152 30.135C23.5299 30.135 22.2013 29.5847 21.2218 28.6052C20.2423 27.6257 19.692 26.2971 19.692 24.9118Z" fill="white"/>
</svg>
